<svg width="47" height="52" viewBox="0 0 47 52" fill="none" xmlns="http://www.w3.org/2000/svg">
<g filter="url(#filter0_d_7_24)">
<path d="M22.9804 3.30001C23.3018 3.11439 23.6981 3.11439 24.0196 3.30003L39.4804 12.2263C39.8019 12.4119 40 12.755 40 13.1263V30.9788C40 31.35 39.8019 31.6931 39.4804 31.8788L24.0196 40.8051C23.6981 40.9908 23.3018 40.9908 22.9804 40.8051L7.51961 31.8788C7.19808 31.6931 7 31.35 7 30.9788V13.1263C7 12.755 7.19808 12.4119 7.51961 12.2263L22.9804 3.30001Z" stroke="#1EA896" stroke-width="3" stroke-linecap="round" stroke-linejoin="round"/>
<path d="M32.1602 27.2487H14.8397L23.5 13.3923L32.1602 27.2487Z" stroke="#1EA896" stroke-width="3" stroke-linecap="round" stroke-linejoin="round"/>
<path d="M7.0455 12.5263L23.5 13.3923" stroke="#1EA896" stroke-width="3" stroke-linejoin="round"/>
<path d="M7.0455 12.5263L14.8397 27.2487" stroke="#1EA896" stroke-width="3" stroke-linejoin="round"/>
<path d="M39.9544 12.5263L32.1602 27.2487" stroke="#1EA896" stroke-width="3" stroke-linejoin="round"/>
<path d="M39.9544 12.5263L23.5 13.3922V3" stroke="#1EA896" stroke-width="3" stroke-linejoin="round"/>
<path d="M39.9544 31.5788L32.1602 27.2487" stroke="#1EA896" stroke-width="3" stroke-linejoin="round"/>
<path d="M7.0455 31.5788L14.8397 27.2487" stroke="#1EA896" stroke-width="3" stroke-linejoin="round"/>
<path d="M14.8397 27.2487L23.5 41.1051L32.1602 27.2487" stroke="#1EA896" stroke-width="3" stroke-linejoin="round"/>
</g>
<defs>
<filter id="filter0_d_7_24" x="0.3" y="0.460797" width="46.4" height="51.3443" filterUnits="userSpaceOnUse" color-interpolation-filters="sRGB">
<feFlood flood-opacity="0" result="BackgroundImageFix"/>
<feColorMatrix in="SourceAlpha" type="matrix" values="0 0 0 0 0 0 0 0 0 0 0 0 0 0 0 0 0 0 127 0" result="hardAlpha"/>
<feOffset dy="4"/>
<feGaussianBlur stdDeviation="2.6"/>
<feComposite in2="hardAlpha" operator="out"/>
<feColorMatrix type="matrix" values="0 0 0 0 0.117647 0 0 0 0 0.658824 0 0 0 0 0.588235 0 0 0 1 0"/>
<feBlend mode="normal" in2="BackgroundImageFix" result="effect1_dropShadow_7_24"/>
<feBlend mode="normal" in="SourceGraphic" in2="effect1_dropShadow_7_24" result="shape"/>
</filter>
</defs>
</svg>
